<svg height="479pt" viewBox="0 -73 479.97984 479" width="479pt" xmlns="http://www.w3.org/2000/svg"><path d="m105.710938 167.042969v-150.535157l106.183593 75.273438zm0 0" fill="#4370ff"/><path d="m318.078125 317.570312v-103.421874h145.910156zm0 0" fill="#4370ff"/><path d="m463.988281 198.164062h-97.917969v32h47.679688l-79.679688 56.480469v-270.160156c-.007812-5.988281-3.351562-11.46875-8.671874-14.210937-5.320313-2.746094-11.726563-2.2929692-16.609376 1.167968l-96.878906 68.722656-96.960937-68.722656c-5.597657-3.71875-12.882813-3.71875-18.480469 0l-89.757812 63.601563c-5.664063 4.042969-8.070313 11.277343-5.953126 17.90625 2.121094 6.625 8.273438 11.125 15.230469 11.132812h105.761719v-48.640625l62.480469 44.320313-62.480469 44.320312v-8h-32v38.960938c.113281 5.148437 2.589844 9.960937 6.71875 13.039062l212.320312 150.5625c5.589844 3.839844 12.96875 3.839844 18.5625 0l145.917969-103.441406c5.664063-4.039063 8.066407-11.277344 5.949219-17.902344-2.117188-6.628906-8.273438-11.128906-15.230469-11.136719zm-374.238281-134.082031h-23.519531l23.519531-16.640625zm212.320312 222.5625-168.71875-119.601562 168.71875-119.601563zm0 0"/></svg>