<svg height="480pt" viewBox="-24 0 480 480.0001" width="480pt" xmlns="http://www.w3.org/2000/svg"><path d="m348.023438 166.121094c-.007813-44.070313-31.433594-81.875-74.761719-89.925782-43.328125-8.050781-86.238281 15.9375-102.074219 57.0625-15.839844 41.128907-.097656 87.699219 37.441406 110.785157v27.019531h95.839844v-27.019531c27.078125-16.636719 43.566406-46.144531 43.554688-77.921875zm0 0" fill="#4370ff"/><path d="m237.777344 182.117188h14.242187l-12.402343 32.210937 29.867187 11.492187 20.757813-53.960937c1.894531-4.917969 1.242187-10.453125-1.742188-14.800781-2.984375-4.34375-7.914062-6.941406-13.1875-6.941406h-14.230469l12.394531-32.203126-29.867187-11.492187-20.761719 53.945313c-1.894531 4.921874-1.242187 10.457031 1.742188 14.804687s7.917968 6.945313 13.1875 6.945313zm0 0"/><path d="m306.101562 223.039062h41.679688c30.863281-49.4375 16.710938-114.46875-31.902344-146.613281-48.613281-32.148437-113.992187-19.707031-147.398437 28.050781-33.410157 47.757813-22.6875 113.433594 24.179687 148.082032v63.601562c-.003906 8.835938 7.160156 16.003906 16 16h9.519532v13.039063c.027343 8.828125 7.175781 15.976562 16 16h6.398437v86.800781h-57.597656l16.320312-77.441406c1.085938-5.179688-.457031-10.566406-4.121093-14.390625-3.660157-3.820313-8.976563-5.589844-14.199219-4.726563l-80.878907 13.679688c-3.839843.644531-7.769531-.433594-10.742187-2.945313-2.976563-2.511719-4.691406-6.203125-4.699219-10.09375v-22.722656h-32v22.722656c-.019531 13.308594 5.832032 25.945313 15.996094 34.539063 10.164062 8.589844 23.605469 12.257812 36.722656 10.019531l57.761719-9.679687-15.519531 73.757812c-1 4.710938.179687 9.617188 3.207031 13.359375 3.027344 3.738281 7.578125 5.914063 12.390625 5.921875h109.359375v-118.800781h6.320313c8.839843 0 16-7.164063 16-16v-13.039063h9.601562c8.824219-.027344 15.972656-7.175781 16-16v-61.121094h-95.839844v-10.957031c0-5.570312-2.875-10.742187-7.601562-13.683593-27.78125-17.078126-41.445313-50.074219-33.875-81.792969 7.574218-31.722657 34.671875-54.988281 67.171875-57.671875 32.5-2.6875 63.050781 15.8125 75.730469 45.859375 12.675781 30.046875 4.617187 64.839843-19.984376 86.246093zm-81.441406 64h63.839844v13.121094h-63.839844zm0 0"/><path d="m238.539062 0h-.375c-98.675781-.101562-181.652343 74-192.664062 172.058594l-44.207031 102.96875c-2.117188 4.945312-1.609375 10.621094 1.347656 15.113281 2.960937 4.492187 7.976563 7.195313 13.355469 7.199219h68.65625v-16c0-8.835938-7.164063-16-16-16h-28.375l35.574218-82.867188c.644532-1.496094 1.054688-3.082031 1.222657-4.703125 8.226562-82.804687 77.9375-145.863281 161.152343-145.769531h.3125c73.445313.003906 137.738282 49.328125 156.765626 120.269531 19.027343 70.941407-11.953126 145.820313-75.539063 182.578125-5.578125 3.230469-8.671875 9.496094-7.839844 15.886719l12.511719 97.265625h-19.894531v32h38.089843c4.597657 0 8.972657-1.980469 12.011719-5.433594 3.035157-3.453125 4.441407-8.046875 3.855469-12.609375l-13.527344-105.078125c54.964844-36.136718 88.003906-97.550781 87.871094-163.328125-.574219-106.949219-87.355469-193.394531-194.304688-193.550781zm0 0"/></svg>