<svg height="480pt" viewBox="0 0 480 480" width="480pt" xmlns="http://www.w3.org/2000/svg"><path d="m298.433594 240c0 32.273438-26.160156 58.4375-58.433594 58.4375s-58.433594-26.164062-58.433594-58.4375c0-32.269531 26.160156-58.433594 58.433594-58.433594s58.433594 26.164063 58.433594 58.433594zm0 0" fill="#4370ff"/><path d="m240 165.566406c-41.109375 0-74.433594 33.328125-74.433594 74.4375s33.328125 74.4375 74.4375 74.433594c41.109375 0 74.433594-33.328125 74.433594-74.4375-.046875-41.089844-33.347656-74.390625-74.4375-74.433594zm39.253906 58.433594h-23.253906v-23.25c10.550781 4.324219 18.925781 12.699219 23.253906 23.25zm-55.253906-23.25v23.25h-23.253906c4.328125-10.550781 12.703125-18.925781 23.253906-23.25zm-23.253906 55.25h23.253906v23.253906c-10.550781-4.328125-18.925781-12.703125-23.253906-23.253906zm55.253906 23.253906v-23.253906h23.253906c-4.328125 10.550781-12.703125 18.925781-23.253906 23.253906zm0 0"/><path d="m450.078125 224c-7.953125-103.714844-90.363281-186.125-194.078125-194.078125v-29.921875h-32v92.960938h32v-30.960938c86.035156 7.796875 154.203125 75.964844 162 162h-30.960938v32h92.960938v-32zm-194.078125 194v-30.960938h-32v30.960938c-86.035156-7.796875-154.203125-75.964844-162-162h30.960938v-32h-30.960938c6.707031-73.996094 58.449219-136.144531 130-156.160156v-33.039063c-89.480469 21.015625-155.046875 97.554688-162.078125 189.199219h-29.921875v32h29.921875c7.953125 103.714844 90.363281 186.125 194.078125 194.078125v29.921875h32v-29.921875c91.644531-7.03125 168.183594-72.597656 189.199219-162.078125h-33.039063c-20.011718 71.554688-82.164062 123.292969-156.160156 130zm0 0"/></svg>